<svg xmlns="http://www.w3.org/2000/svg">
  <symbol id="icon-delivery" viewBox="0 0 24 24"><path d="M3 16V6h11v10M14 9h4l3 4v3h-7M7 19a2 2 0 1 0 0-4 2 2 0 0 0 0 4Zm10 0a2 2 0 1 0 0-4 2 2 0 0 0 0 4ZM3 9h8" fill="none" stroke="currentColor" stroke-width="1.8" stroke-linecap="round" stroke-linejoin="round"/></symbol>
  <symbol id="icon-kitchen" viewBox="0 0 24 24"><path d="M6 10h12M8 10a4 4 0 0 1 8 0M12 6V4M4 14h16l-1 6H5l-1-6Z" fill="none" stroke="currentColor" stroke-width="1.8" stroke-linecap="round" stroke-linejoin="round"/></symbol>
  <symbol id="icon-receipt" viewBox="0 0 24 24"><path d="M6 3h12v18l-3-2-3 2-3-2-3 2V3Zm3 5h6M9 12h6M9 16h4" fill="none" stroke="currentColor" stroke-width="1.8" stroke-linecap="round" stroke-linejoin="round"/></symbol>
  <symbol id="icon-settings" viewBox="0 0 24 24"><path d="M4 7h10M18 7h2M4 17h2M10 17h10M14 4v6M8 14v6" fill="none" stroke="currentColor" stroke-width="1.9" stroke-linecap="round" stroke-linejoin="round"/><circle cx="16" cy="7" r="2" fill="none" stroke="currentColor" stroke-width="1.9"/><circle cx="8" cy="17" r="2" fill="none" stroke="currentColor" stroke-width="1.9"/></symbol>
  <symbol id="icon-users" viewBox="0 0 24 24"><path d="M9 11a4 4 0 1 0 0-8 4 4 0 0 0 0 8Zm6.5-1a3 3 0 1 0 0-6M2 21a7 7 0 0 1 14 0m1-7a5 5 0 0 1 5 5" fill="none" stroke="currentColor" stroke-width="1.8" stroke-linecap="round" stroke-linejoin="round"/></symbol>
  <symbol id="icon-user" viewBox="0 0 24 24"><path d="M12 12a4.5 4.5 0 1 0 0-9 4.5 4.5 0 0 0 0 9Zm-8 9a8 8 0 0 1 16 0" fill="none" stroke="currentColor" stroke-width="1.9" stroke-linecap="round" stroke-linejoin="round"/></symbol>
  <symbol id="icon-home" viewBox="0 0 24 24"><path d="m3 11 9-8 9 8v10h-6v-6H9v6H3V11Z" fill="none" stroke="currentColor" stroke-width="1.8" stroke-linecap="round" stroke-linejoin="round"/></symbol>
  <symbol id="icon-table" viewBox="0 0 24 24"><path d="M4 7h16M6 7v12M18 7v12M3 5h18v4H3V5Z" fill="none" stroke="currentColor" stroke-width="1.8" stroke-linecap="round" stroke-linejoin="round"/></symbol>
  <symbol id="icon-logout" viewBox="0 0 24 24"><path d="M10 4H5v16h5M14 8l4 4-4 4M8 12h10" fill="none" stroke="currentColor" stroke-width="1.8" stroke-linecap="round" stroke-linejoin="round"/></symbol>
  <symbol id="icon-chevron-down" viewBox="0 0 24 24"><path d="m7 9 5 5 5-5" fill="none" stroke="currentColor" stroke-width="2" stroke-linecap="round" stroke-linejoin="round"/></symbol>
  <symbol id="icon-add" viewBox="0 0 24 24"><path d="M12 5v14M5 12h14" fill="none" stroke="currentColor" stroke-width="2" stroke-linecap="round"/></symbol>
  <symbol id="icon-save" viewBox="0 0 24 24"><path d="M5 3h12l2 2v16H5V3Zm3 0v6h8V3M8 21v-7h8v7" fill="none" stroke="currentColor" stroke-width="1.8" stroke-linejoin="round"/></symbol>
  <symbol id="icon-edit" viewBox="0 0 24 24"><path d="m4 20 4.5-1 10-10-3.5-3.5-10 10L4 20Zm9.5-13 3.5 3.5" fill="none" stroke="currentColor" stroke-width="1.8" stroke-linecap="round" stroke-linejoin="round"/></symbol>
  <symbol id="icon-delete" viewBox="0 0 24 24"><path d="M5 7h14M9 7V4h6v3M8 10v8M12 10v8M16 10v8M7 7l1 14h8l1-14" fill="none" stroke="currentColor" stroke-width="1.8" stroke-linecap="round" stroke-linejoin="round"/></symbol>
  <symbol id="icon-check" viewBox="0 0 24 24"><path d="m5 12 4 4L19 6" fill="none" stroke="currentColor" stroke-width="2" stroke-linecap="round" stroke-linejoin="round"/></symbol>
  <symbol id="icon-close" viewBox="0 0 24 24"><path d="M6 6l12 12M18 6 6 18" fill="none" stroke="currentColor" stroke-width="2" stroke-linecap="round"/></symbol>
  <symbol id="icon-print" viewBox="0 0 24 24"><path d="M7 9V3h10v6M7 17H4V9h16v8h-3M7 14h10v7H7v-7Z" fill="none" stroke="currentColor" stroke-width="1.8" stroke-linejoin="round"/></symbol>
  <symbol id="icon-back" viewBox="0 0 24 24"><path d="m10 6-6 6 6 6M4 12h16" fill="none" stroke="currentColor" stroke-width="2" stroke-linecap="round" stroke-linejoin="round"/></symbol>
  <symbol id="icon-qr" viewBox="0 0 24 24"><path d="M4 4h6v6H4V4Zm10 0h6v6h-6V4ZM4 14h6v6H4v-6Zm10 0h2v2h-2v-2Zm4 0h2v6h-6v-2h4v-4Zm-4 4h2v2h-2v-2Z" fill="none" stroke="currentColor" stroke-width="1.6"/></symbol>
  <symbol id="icon-search" viewBox="0 0 24 24"><circle cx="10.5" cy="10.5" r="6.5" fill="none" stroke="currentColor" stroke-width="1.9"/><path d="m15.5 15.5 5 5" fill="none" stroke="currentColor" stroke-width="1.9" stroke-linecap="round"/></symbol>
  <symbol id="icon-minus" viewBox="0 0 24 24"><path d="M5 12h14" fill="none" stroke="currentColor" stroke-width="2" stroke-linecap="round"/></symbol>
  <symbol id="icon-cart" viewBox="0 0 24 24"><path d="M3 4h2l2.2 10.2a2 2 0 0 0 2 1.6h7.7a2 2 0 0 0 2-1.6L20 8H7M10 20a1.5 1.5 0 1 0 0-3 1.5 1.5 0 0 0 0 3Zm7 0a1.5 1.5 0 1 0 0-3 1.5 1.5 0 0 0 0 3Z" fill="none" stroke="currentColor" stroke-width="1.8" stroke-linecap="round" stroke-linejoin="round"/></symbol>
</svg>