<svg xmlns="http://www.w3.org/2000/svg">
  <symbol id="icon-delivery" viewBox="0 0 24 24"><path d="M3 16V6h11v10M14 9h4l3 4v3h-7M7 19a2 2 0 1 0 0-4 2 2 0 0 0 0 4Zm10 0a2 2 0 1 0 0-4 2 2 0 0 0 0 4ZM3 9h8" fill="none" stroke="currentColor" stroke-width="1.8" stroke-linecap="round" stroke-linejoin="round"/></symbol>
  <symbol id="icon-kitchen" viewBox="0 0 24 24"><path d="M6 10h12M8 10a4 4 0 0 1 8 0M12 6V4M4 14h16l-1 6H5l-1-6Z" fill="none" stroke="currentColor" stroke-width="1.8" stroke-linecap="round" stroke-linejoin="round"/></symbol>
  <symbol id="icon-receipt" viewBox="0 0 24 24"><path d="M6 3h12v18l-3-2-3 2-3-2-3 2V3Zm3 5h6M9 12h6M9 16h4" fill="none" stroke="currentColor" stroke-width="1.8" stroke-linecap="round" stroke-linejoin="round"/></symbol>
  <symbol id="icon-settings" viewBox="0 0 24 24"><path d="M4 7h10M18 7h2M4 17h2M10 17h10M14 4v6M8 14v6" fill="none" stroke="currentColor" stroke-width="1.9" stroke-linecap="round" stroke-linejoin="round"/><circle cx="16" cy="7" r="2" fill="none" stroke="currentColor" stroke-width="1.9"/><circle cx="8" cy="17" r="2" fill="none" stroke="currentColor" stroke-width="1.9"/></symbol>
  <symbol id="icon-users" viewBox="0 0 24 24"><path d="M9 11a4 4 0 1 0 0-8 4 4 0 0 0 0 8Zm6.5-1a3 3 0 1 0 0-6M2 21a7 7 0 0 1 14 0m1-7a5 5 0 0 1 5 5" fill="none" stroke="currentColor" stroke-width="1.8" stroke-linecap="round" stroke-linejoin="round"/></symbol>
  <symbol id="icon-user" viewBox="0 0 24 24"><path d="M12 12a4.5 4.5 0 1 0 0-9 4.5 4.5 0 0 0 0 9Zm-8 9a8 8 0 0 1 16 0" fill="none" stroke="currentColor" stroke-width="1.9" stroke-linecap="round" stroke-linejoin="round"/></symbol>
  <symbol id="icon-home" viewBox="0 0 24 24"><path d="m3 11 9-8 9 8v10h-6v-6H9v6H3V11Z" fill="none" stroke="currentColor" stroke-width="1.8" stroke-linecap="round" stroke-linejoin="round"/></symbol>
  <symbol id="icon-table" viewBox="0 0 24 24"><path d="M4 7h16M6 7v12M18 7v12M3 5h18v4H3V5Z" fill="none" stroke="currentColor" stroke-width="1.8" stroke-linecap="round" stroke-linejoin="round"/></symbol>
  <symbol id="icon-logout" viewBox="0 0 24 24"><path d="M10 4H5v16h5M14 8l4 4-4 4M8 12h10" fill="none" stroke="currentColor" stroke-width="1.8" stroke-linecap="round" stroke-linejoin="round"/></symbol>
  <symbol id="icon-chevron-down" viewBox="0 0 24 24"><path d="m7 9 5 5 5-5" fill="none" stroke="currentColor" stroke-width="2" stroke-linecap="round" stroke-linejoin="round"/></symbol>
</svg>