<svg xmlns="http://www.w3.org/2000/svg">
  <symbol id="icon-delivery" viewBox="0 0 24 24"><path d="M3 16V6h11v10M14 9h4l3 4v3h-7M7 19a2 2 0 1 0 0-4 2 2 0 0 0 0 4Zm10 0a2 2 0 1 0 0-4 2 2 0 0 0 0 4ZM3 9h8" fill="none" stroke="currentColor" stroke-width="1.75" stroke-linecap="round" stroke-linejoin="round"/></symbol>
  <symbol id="icon-kitchen" viewBox="0 0 24 24"><path d="M5 13h14M7 13a5 5 0 0 1 10 0M12 8V6.25M10.5 6.25h3M4.5 16h15l-1 4H5.5l-1-4Z" fill="none" stroke="currentColor" stroke-width="1.9" stroke-linecap="round" stroke-linejoin="round"/></symbol>
  <symbol id="icon-receipt" viewBox="0 0 24 24"><path d="M6.5 3.5h11v17l-2.25-1.65L13 20.5l-2.25-1.65L8.5 20.5l-2-1.5V3.5Z" fill="none" stroke="currentColor" stroke-width="1.9" stroke-linecap="round" stroke-linejoin="round"/><path d="M9.25 8h5.5M9.25 11.75h5.5M9.25 15.5h3.75" fill="none" stroke="currentColor" stroke-width="1.8" stroke-linecap="round"/></symbol>
  <symbol id="icon-settings" viewBox="0 0 24 24"><path d="M5 7.25h13.5M15.5 4.25l3 3-3 3M19 16.75H5.5M8.5 13.75l-3 3 3 3" fill="none" stroke="currentColor" stroke-width="2" stroke-linecap="round" stroke-linejoin="round"/></symbol>
  <symbol id="icon-key" viewBox="0 0 24 24"><circle cx="15.5" cy="8.5" r="4.25" fill="none" stroke="currentColor" stroke-width="1.9"/><path d="m12.5 11.5-7.75 7.75M8 16h-2.5v2.5M10.25 13.75l1.75 1.75M16.9 7.1h.02" fill="none" stroke="currentColor" stroke-width="1.9" stroke-linecap="round" stroke-linejoin="round"/></symbol>
  <symbol id="icon-users" viewBox="0 0 24 24"><circle cx="8.75" cy="7.5" r="3.25" fill="none" stroke="currentColor" stroke-width="1.9"/><path d="M2.75 20a6 6 0 0 1 12 0M15 10.5a3 3 0 1 0 0-6M16.25 15a5 5 0 0 1 5 5" fill="none" stroke="currentColor" stroke-width="1.9" stroke-linecap="round"/></symbol>
  <symbol id="icon-user" viewBox="0 0 24 24"><circle cx="12" cy="7.75" r="3.75" fill="none" stroke="currentColor" stroke-width="1.9"/><path d="M4.75 20a7.25 7.25 0 0 1 14.5 0" fill="none" stroke="currentColor" stroke-width="1.9" stroke-linecap="round"/></symbol>
  <symbol id="icon-home" viewBox="0 0 24 24"><path d="m3.5 11.25 8.5-7 8.5 7V20h-6v-5.25h-5V20h-6v-8.75Z" fill="none" stroke="currentColor" stroke-width="1.9" stroke-linecap="round" stroke-linejoin="round"/></symbol>
  <symbol id="icon-table" viewBox="0 0 24 24"><path d="M4 6.25h16v4H4v-4ZM6.25 10.25V20M17.75 10.25V20M6.25 14h11.5" fill="none" stroke="currentColor" stroke-width="1.9" stroke-linecap="round" stroke-linejoin="round"/></symbol>
  <symbol id="icon-logout" viewBox="0 0 24 24"><path d="M10 4H5v16h5M14.5 8l4 4-4 4M8.5 12h10" fill="none" stroke="currentColor" stroke-width="1.9" stroke-linecap="round" stroke-linejoin="round"/></symbol>
  <symbol id="icon-chevron-down" viewBox="0 0 24 24"><path d="m7 9.25 5 5 5-5" fill="none" stroke="currentColor" stroke-width="2" stroke-linecap="round" stroke-linejoin="round"/></symbol>
  <symbol id="icon-add" viewBox="0 0 24 24"><path d="M12 5v14M5 12h14" fill="none" stroke="currentColor" stroke-width="1.85" stroke-linecap="round"/></symbol>
  <symbol id="icon-plus" viewBox="0 0 24 24"><path d="M12 5v14M5 12h14" fill="none" stroke="currentColor" stroke-width="1.85" stroke-linecap="round"/></symbol>
  <symbol id="icon-save" viewBox="0 0 24 24"><path d="M5 3h12l2 2v16H5V3Zm3 0v6h8V3M8 21v-7h8v7" fill="none" stroke="currentColor" stroke-width="1.75" stroke-linejoin="round"/></symbol>
  <symbol id="icon-edit" viewBox="0 0 24 24"><path d="m4 20 4.5-1 10-10-3.5-3.5-10 10L4 20Zm9.5-13 3.5 3.5" fill="none" stroke="currentColor" stroke-width="1.75" stroke-linecap="round" stroke-linejoin="round"/></symbol>
  <symbol id="icon-pencil" viewBox="0 0 24 24"><path d="m4 20 4.5-1 10-10-3.5-3.5-10 10L4 20Zm9.5-13 3.5 3.5" fill="none" stroke="currentColor" stroke-width="1.75" stroke-linecap="round" stroke-linejoin="round"/></symbol>
  <symbol id="icon-delete" viewBox="0 0 24 24"><path d="M5 7h14M9 7V4h6v3M8 10v8M12 10v8M16 10v8M7 7l1 14h8l1-14" fill="none" stroke="currentColor" stroke-width="1.75" stroke-linecap="round" stroke-linejoin="round"/></symbol>
  <symbol id="icon-trash" viewBox="0 0 24 24"><path d="M5 7h14M9 7V4h6v3M8 10v8M12 10v8M16 10v8M7 7l1 14h8l1-14" fill="none" stroke="currentColor" stroke-width="1.75" stroke-linecap="round" stroke-linejoin="round"/></symbol>
  <symbol id="icon-check" viewBox="0 0 24 24"><path d="m5 12 4 4L19 6" fill="none" stroke="currentColor" stroke-width="1.9" stroke-linecap="round" stroke-linejoin="round"/></symbol>
  <symbol id="icon-check-circle" viewBox="0 0 24 24"><circle cx="12" cy="12" r="9" fill="none" stroke="currentColor" stroke-width="1.85"/><path d="m8 12 2.5 2.5L16.5 8.5" fill="none" stroke="currentColor" stroke-width="1.85" stroke-linecap="round" stroke-linejoin="round"/></symbol>
  <symbol id="icon-x-circle" viewBox="0 0 24 24"><circle cx="12" cy="12" r="9" fill="none" stroke="currentColor" stroke-width="1.85"/><path d="m9 9 6 6M15 9l-6 6" fill="none" stroke="currentColor" stroke-width="1.85" stroke-linecap="round"/></symbol>
  <symbol id="icon-times-circle" viewBox="0 0 24 24"><circle cx="12" cy="12" r="9" fill="none" stroke="currentColor" stroke-width="1.85"/><path d="m9 9 6 6M15 9l-6 6" fill="none" stroke="currentColor" stroke-width="1.85" stroke-linecap="round"/></symbol>
  <symbol id="icon-view" viewBox="0 0 24 24"><path d="M2.6 12s3.35-5.8 9.4-5.8 9.4 5.8 9.4 5.8-3.35 5.8-9.4 5.8S2.6 12 2.6 12Z" fill="none" stroke="currentColor" stroke-width="1.75" stroke-linecap="round" stroke-linejoin="round"/><circle cx="12" cy="12" r="2.7" fill="none" stroke="currentColor" stroke-width="1.75"/></symbol>
  <symbol id="icon-close" viewBox="0 0 24 24"><path d="M6 6l12 12M18 6 6 18" fill="none" stroke="currentColor" stroke-width="1.9" stroke-linecap="round"/></symbol>
  <symbol id="icon-print" viewBox="0 0 24 24"><path d="M7 9V3h10v6M7 17H4V9h16v8h-3M7 14h10v7H7v-7Z" fill="none" stroke="currentColor" stroke-width="1.75" stroke-linejoin="round"/></symbol>
  <symbol id="icon-back" viewBox="0 0 24 24"><path d="m10 6-6 6 6 6M4 12h16" fill="none" stroke="currentColor" stroke-width="1.9" stroke-linecap="round" stroke-linejoin="round"/></symbol>
  <symbol id="icon-qr" viewBox="0 0 24 24"><path d="M4 4h6v6H4V4Zm10 0h6v6h-6V4ZM4 14h6v6H4v-6Zm10 0h2v2h-2v-2Zm4 0h2v6h-6v-2h4v-4Zm-4 4h2v2h-2v-2Z" fill="none" stroke="currentColor" stroke-width="1.55"/></symbol>
  <symbol id="icon-search" viewBox="0 0 24 24"><circle cx="10.5" cy="10.5" r="6.5" fill="none" stroke="currentColor" stroke-width="1.75"/><path d="m15.5 15.5 5 5" fill="none" stroke="currentColor" stroke-width="1.75" stroke-linecap="round"/></symbol>
  <symbol id="icon-minus" viewBox="0 0 24 24"><path d="M5 12h14" fill="none" stroke="currentColor" stroke-width="1.9" stroke-linecap="round"/></symbol>
  <symbol id="icon-cart" viewBox="0 0 24 24"><path d="M3 4h2l2.2 10.2a2 2 0 0 0 2 1.6h7.7a2 2 0 0 0 2-1.6L20 8H7M10 20a1.5 1.5 0 1 0 0-3 1.5 1.5 0 0 0 0 3Zm7 0a1.5 1.5 0 1 0 0-3 1.5 1.5 0 0 0 0 3Z" fill="none" stroke="currentColor" stroke-width="1.75" stroke-linecap="round" stroke-linejoin="round"/></symbol>
</svg>
