<svg xmlns="http://www.w3.org/2000/svg">
  <symbol id="icon-delivery" viewBox="0 0 24 24"><path d="M3 16V6h11v10M14 9h4l3 4v3h-7M7 19a2 2 0 1 0 0-4 2 2 0 0 0 0 4Zm10 0a2 2 0 1 0 0-4 2 2 0 0 0 0 4ZM3 9h8" fill="none" stroke="currentColor" stroke-width="1.8" stroke-linecap="round" stroke-linejoin="round"/></symbol>
  <symbol id="icon-kitchen" viewBox="0 0 24 24"><path d="M6 10h12M8 10a4 4 0 0 1 8 0M12 6V4M4 14h16l-1 6H5l-1-6Z" fill="none" stroke="currentColor" stroke-width="1.8" stroke-linecap="round" stroke-linejoin="round"/></symbol>
  <symbol id="icon-receipt" viewBox="0 0 24 24"><path d="M6 3h12v18l-3-2-3 2-3-2-3 2V3Zm3 5h6M9 12h6M9 16h4" fill="none" stroke="currentColor" stroke-width="1.8" stroke-linecap="round" stroke-linejoin="round"/></symbol>
  <symbol id="icon-settings" viewBox="0 0 24 24"><path d="M12 15.5a3.5 3.5 0 1 0 0-7 3.5 3.5 0 0 0 0 7Zm0-11v2m0 11v2m7.5-7.5h-2m-11 0h-2m12.8-5.3-1.4 1.4M8.1 15.9l-1.4 1.4m10.6 0-1.4-1.4M8.1 8.1 6.7 6.7" fill="none" stroke="currentColor" stroke-width="1.8" stroke-linecap="round"/></symbol>
  <symbol id="icon-users" viewBox="0 0 24 24"><path d="M9 11a4 4 0 1 0 0-8 4 4 0 0 0 0 8Zm6.5-1a3 3 0 1 0 0-6M2 21a7 7 0 0 1 14 0m1-7a5 5 0 0 1 5 5" fill="none" stroke="currentColor" stroke-width="1.8" stroke-linecap="round" stroke-linejoin="round"/></symbol>
</svg>