<svg xmlns="http://www.w3.org/2000/svg">
  <symbol id="icon-delivery" viewBox="0 0 24 24"><path d="M3 16V6h11v10M14 9h4l3 4v3h-7M7 19a2 2 0 1 0 0-4 2 2 0 0 0 0 4Zm10 0a2 2 0 1 0 0-4 2 2 0 0 0 0 4ZM3 9h8" fill="none" stroke="currentColor" stroke-width="1.75" stroke-linecap="round" stroke-linejoin="round"/></symbol>
  <symbol id="icon-kitchen" viewBox="0 0 24 24"><path d="M6.4 11.4h11.2M8.1 11.4a3.9 3.9 0 0 1 7.8 0M12 7.5V5.6M4.9 14.4h14.2l-1.1 4.7H6l-1.1-4.7Z" fill="none" stroke="currentColor" stroke-width="1.75" stroke-linecap="round" stroke-linejoin="round"/></symbol>
  <symbol id="icon-receipt" viewBox="0 0 24 24"><path d="M7.2 3.8h9.6v16.4l-2.4-1.55L12 20.2l-2.4-1.55-2.4 1.55V3.8Z" fill="none" stroke="currentColor" stroke-width="1.75" stroke-linecap="round" stroke-linejoin="round"/><path d="M9.6 8.1h4.8M9.6 11.6h4.8M9.6 15h3.6" fill="none" stroke="currentColor" stroke-width="1.55" stroke-linecap="round"/></symbol>
  <symbol id="icon-settings" viewBox="0 0 24 24"><path d="M7.2 7.2h9.6M14.4 4.8l2.4 2.4-2.4 2.4M16.8 16.8H7.2M9.6 14.4l-2.4 2.4 2.4 2.4" fill="none" stroke="currentColor" stroke-width="1.85" stroke-linecap="round" stroke-linejoin="round"/></symbol>
  <symbol id="icon-key" viewBox="0 0 24 24"><path d="M14.85 5.15a4.6 4.6 0 1 1-2.28 8.6L7.55 18.8H4.85v-2.7l1.55-1.55h1.95v-1.95h1.95l1.12-1.12a4.6 4.6 0 0 1 3.43-6.33Z" fill="none" stroke="currentColor" stroke-width="1.75" stroke-linecap="round" stroke-linejoin="round"/><circle cx="16.2" cy="7.8" r="1.2" fill="none" stroke="currentColor" stroke-width="1.75"/></symbol>
  <symbol id="icon-users" viewBox="0 0 24 24"><circle cx="9.1" cy="8" r="3.15" fill="none" stroke="currentColor" stroke-width="1.75"/><path d="M3.4 20a5.8 5.8 0 0 1 11.4 0" fill="none" stroke="currentColor" stroke-width="1.75" stroke-linecap="round"/><path d="M15.1 10.4a2.65 2.65 0 1 0 0-5.05M16.7 15.1a4.5 4.5 0 0 1 3.9 4.3" fill="none" stroke="currentColor" stroke-width="1.75" stroke-linecap="round"/></symbol>
  <symbol id="icon-user" viewBox="0 0 24 24"><circle cx="12" cy="8.2" r="3.5" fill="none" stroke="currentColor" stroke-width="1.75"/><path d="M5.5 20a6.5 6.5 0 0 1 13 0" fill="none" stroke="currentColor" stroke-width="1.75" stroke-linecap="round"/></symbol>
  <symbol id="icon-home" viewBox="0 0 24 24"><path d="m3.9 11.2 8.1-7 8.1 7V20h-5.2v-5.1H9.1V20H3.9v-8.8Z" fill="none" stroke="currentColor" stroke-width="1.75" stroke-linecap="round" stroke-linejoin="round"/></symbol>
  <symbol id="icon-table" viewBox="0 0 24 24"><path d="M4.3 7.2h15.4M6.1 7.2v11.6M17.9 7.2v11.6M3.8 5.2h16.4v4H3.8v-4Z" fill="none" stroke="currentColor" stroke-width="1.75" stroke-linecap="round" stroke-linejoin="round"/></symbol>
  <symbol id="icon-logout" viewBox="0 0 24 24"><path d="M10 4.6H5.6v14.8H10M14 8.3l3.7 3.7-3.7 3.7M8.7 12h9" fill="none" stroke="currentColor" stroke-width="1.75" stroke-linecap="round" stroke-linejoin="round"/></symbol>
  <symbol id="icon-chevron-down" viewBox="0 0 24 24"><path d="m7.5 9.5 4.5 4.5 4.5-4.5" fill="none" stroke="currentColor" stroke-width="1.85" stroke-linecap="round" stroke-linejoin="round"/></symbol>
  <symbol id="icon-menu" viewBox="0 0 24 24"><path d="M4 6.5h16M4 12h16M4 17.5h16" fill="none" stroke="currentColor" stroke-width="2" stroke-linecap="round"/></symbol>
  <symbol id="icon-add" viewBox="0 0 24 24"><path d="M12 5v14M5 12h14" fill="none" stroke="currentColor" stroke-width="1.85" stroke-linecap="round"/></symbol>
  <symbol id="icon-plus" viewBox="0 0 24 24"><path d="M12 5v14M5 12h14" fill="none" stroke="currentColor" stroke-width="1.85" stroke-linecap="round"/></symbol>
  <symbol id="icon-save" viewBox="0 0 24 24"><path d="M5 3h12l2 2v16H5V3Zm3 0v6h8V3M8 21v-7h8v7" fill="none" stroke="currentColor" stroke-width="1.75" stroke-linejoin="round"/></symbol>
  <symbol id="icon-edit" viewBox="0 0 24 24"><path d="m4 20 4.5-1 10-10-3.5-3.5-10 10L4 20Zm9.5-13 3.5 3.5" fill="none" stroke="currentColor" stroke-width="1.75" stroke-linecap="round" stroke-linejoin="round"/></symbol>
  <symbol id="icon-pencil" viewBox="0 0 24 24"><path d="m4 20 4.5-1 10-10-3.5-3.5-10 10L4 20Zm9.5-13 3.5 3.5" fill="none" stroke="currentColor" stroke-width="1.75" stroke-linecap="round" stroke-linejoin="round"/></symbol>
  <symbol id="icon-delete" viewBox="0 0 24 24"><path d="M5 7h14M9 7V4h6v3M8 10v8M12 10v8M16 10v8M7 7l1 14h8l1-14" fill="none" stroke="currentColor" stroke-width="1.75" stroke-linecap="round" stroke-linejoin="round"/></symbol>
  <symbol id="icon-trash" viewBox="0 0 24 24"><path d="M5 7h14M9 7V4h6v3M8 10v8M12 10v8M16 10v8M7 7l1 14h8l1-14" fill="none" stroke="currentColor" stroke-width="1.75" stroke-linecap="round" stroke-linejoin="round"/></symbol>
  <symbol id="icon-check" viewBox="0 0 24 24"><path d="m5 12 4 4L19 6" fill="none" stroke="currentColor" stroke-width="1.9" stroke-linecap="round" stroke-linejoin="round"/></symbol>
  <symbol id="icon-check-circle" viewBox="0 0 24 24"><circle cx="12" cy="12" r="9" fill="none" stroke="currentColor" stroke-width="1.85"/><path d="m8 12 2.5 2.5L16.5 8.5" fill="none" stroke="currentColor" stroke-width="1.85" stroke-linecap="round" stroke-linejoin="round"/></symbol>
  <symbol id="icon-x-circle" viewBox="0 0 24 24"><circle cx="12" cy="12" r="9" fill="none" stroke="currentColor" stroke-width="1.85"/><path d="m9 9 6 6M15 9l-6 6" fill="none" stroke="currentColor" stroke-width="1.85" stroke-linecap="round"/></symbol>
  <symbol id="icon-times-circle" viewBox="0 0 24 24"><circle cx="12" cy="12" r="9" fill="none" stroke="currentColor" stroke-width="1.85"/><path d="m9 9 6 6M15 9l-6 6" fill="none" stroke="currentColor" stroke-width="1.85" stroke-linecap="round"/></symbol>
  <symbol id="icon-view" viewBox="0 0 24 24"><path d="M2.6 12s3.35-5.8 9.4-5.8 9.4 5.8 9.4 5.8-3.35 5.8-9.4 5.8S2.6 12 2.6 12Z" fill="none" stroke="currentColor" stroke-width="1.75" stroke-linecap="round" stroke-linejoin="round"/><circle cx="12" cy="12" r="2.7" fill="none" stroke="currentColor" stroke-width="1.75"/></symbol>
  <symbol id="icon-close" viewBox="0 0 24 24"><path d="M6 6l12 12M18 6 6 18" fill="none" stroke="currentColor" stroke-width="1.9" stroke-linecap="round"/></symbol>
  <symbol id="icon-print" viewBox="0 0 24 24"><path d="M7 9V3h10v6M7 17H4V9h16v8h-3M7 14h10v7H7v-7Z" fill="none" stroke="currentColor" stroke-width="1.75" stroke-linejoin="round"/></symbol>
  <symbol id="icon-back" viewBox="0 0 24 24"><path d="m10 6-6 6 6 6M4 12h16" fill="none" stroke="currentColor" stroke-width="1.9" stroke-linecap="round" stroke-linejoin="round"/></symbol>
  <symbol id="icon-qr" viewBox="0 0 24 24"><path d="M4 4h6v6H4V4Zm10 0h6v6h-6V4ZM4 14h6v6H4v-6Zm10 0h2v2h-2v-2Zm4 0h2v6h-6v-2h4v-4Zm-4 4h2v2h-2v-2Z" fill="none" stroke="currentColor" stroke-width="1.55"/></symbol>
  <symbol id="icon-search" viewBox="0 0 24 24"><circle cx="10.5" cy="10.5" r="6.5" fill="none" stroke="currentColor" stroke-width="1.75"/><path d="m15.5 15.5 5 5" fill="none" stroke="currentColor" stroke-width="1.75" stroke-linecap="round"/></symbol>
  <symbol id="icon-minus" viewBox="0 0 24 24"><path d="M5 12h14" fill="none" stroke="currentColor" stroke-width="1.9" stroke-linecap="round"/></symbol>
  <symbol id="icon-cart" viewBox="0 0 24 24"><path d="M3 4h2l2.2 10.2a2 2 0 0 0 2 1.6h7.7a2 2 0 0 0 2-1.6L20 8H7M10 20a1.5 1.5 0 1 0 0-3 1.5 1.5 0 0 0 0 3Zm7 0a1.5 1.5 0 1 0 0-3 1.5 1.5 0 0 0 0 3Z" fill="none" stroke="currentColor" stroke-width="1.75" stroke-linecap="round" stroke-linejoin="round"/></symbol>
</svg>
