<svg xmlns="http://www.w3.org/2000/svg">
  <symbol id="icon-delivery" viewBox="0 0 24 24"><path d="M3 16V6h11v10M14 9h4l3 4v3h-7M7 19a2 2 0 1 0 0-4 2 2 0 0 0 0 4Zm10 0a2 2 0 1 0 0-4 2 2 0 0 0 0 4ZM3 9h8" fill="none" stroke="currentColor" stroke-width="1.8" stroke-linecap="round" stroke-linejoin="round"/></symbol>
  <symbol id="icon-kitchen" viewBox="0 0 24 24"><path d="M6.2 11.2h11.6M7.9 11.2a4.1 4.1 0 0 1 8.2 0M12 7.1V5.3M4.8 14.3h14.4l-1.1 4.9H5.9l-1.1-4.9Z" fill="none" stroke="currentColor" stroke-width="1.9" stroke-linecap="round" stroke-linejoin="round"/></symbol>
  <symbol id="icon-receipt" viewBox="0 0 24 24"><path d="M7 3.8h10v16.4l-2.4-1.5-2.6 1.7-2.6-1.7L7 20.2V3.8Z" fill="none" stroke="currentColor" stroke-width="1.9" stroke-linecap="round" stroke-linejoin="round"/><path d="M9.4 8h5.2M9.4 11.4h5.2M9.4 14.8h3.8" fill="none" stroke="currentColor" stroke-width="1.7" stroke-linecap="round"/></symbol>
  <symbol id="icon-settings" viewBox="0 0 24 24"><path d="M5 8.2h9.1M17.9 8.2H19M5 15.8h1.1M9.9 15.8H19" fill="none" stroke="currentColor" stroke-width="1.9" stroke-linecap="round"/><circle cx="16" cy="8.2" r="1.9" fill="none" stroke="currentColor" stroke-width="1.9"/><circle cx="8" cy="15.8" r="1.9" fill="none" stroke="currentColor" stroke-width="1.9"/></symbol>
  <symbol id="icon-key" viewBox="0 0 24 24"><path d="M14.7 5.2a4.7 4.7 0 1 1-2.35 8.77L7.6 18.72H4.8v-2.8l1.55-1.55h2.02v-2.02h2.02l1.15-1.15A4.7 4.7 0 0 1 14.7 5.2Z" fill="none" stroke="currentColor" stroke-width="1.9" stroke-linecap="round" stroke-linejoin="round"/><circle cx="16.1" cy="7.9" r="1.25" fill="none" stroke="currentColor" stroke-width="1.9"/></symbol>
  <symbol id="icon-users" viewBox="0 0 24 24"><path d="M9.2 11a3.5 3.5 0 1 0 0-7 3.5 3.5 0 0 0 0 7Zm6.3-.7a2.7 2.7 0 1 0 0-5.4M3 20.2a6.2 6.2 0 0 1 12.4 0m1.3-5.2a4.4 4.4 0 0 1 4.3 4.4" fill="none" stroke="currentColor" stroke-width="1.9" stroke-linecap="round" stroke-linejoin="round"/></symbol>
  <symbol id="icon-user" viewBox="0 0 24 24"><circle cx="12" cy="8.3" r="3.7" fill="none" stroke="currentColor" stroke-width="1.9"/><path d="M5.2 20.2a6.8 6.8 0 0 1 13.6 0" fill="none" stroke="currentColor" stroke-width="1.9" stroke-linecap="round"/></symbol>
  <symbol id="icon-home" viewBox="0 0 24 24"><path d="m3.8 11.2 8.2-7 8.2 7v8.8h-5.1v-5.2H8.9V20H3.8v-8.8Z" fill="none" stroke="currentColor" stroke-width="1.9" stroke-linecap="round" stroke-linejoin="round"/></symbol>
  <symbol id="icon-table" viewBox="0 0 24 24"><path d="M4.2 7.2h15.6M6.2 7.2v11.6M17.8 7.2v11.6M3.7 5.2h16.6v4H3.7v-4Z" fill="none" stroke="currentColor" stroke-width="1.9" stroke-linecap="round" stroke-linejoin="round"/></symbol>
  <symbol id="icon-logout" viewBox="0 0 24 24"><path d="M10 4.5H5.5v15h4.5M14 8.2l3.8 3.8-3.8 3.8M8.7 12h9" fill="none" stroke="currentColor" stroke-width="1.9" stroke-linecap="round" stroke-linejoin="round"/></symbol>
  <symbol id="icon-chevron-down" viewBox="0 0 24 24"><path d="m7.5 9.5 4.5 4.5 4.5-4.5" fill="none" stroke="currentColor" stroke-width="2" stroke-linecap="round" stroke-linejoin="round"/></symbol>
  <symbol id="icon-add" viewBox="0 0 24 24"><path d="M12 5v14M5 12h14" fill="none" stroke="currentColor" stroke-width="2" stroke-linecap="round"/></symbol>
  <symbol id="icon-plus" viewBox="0 0 24 24"><path d="M12 5v14M5 12h14" fill="none" stroke="currentColor" stroke-width="2" stroke-linecap="round"/></symbol>
  <symbol id="icon-save" viewBox="0 0 24 24"><path d="M5 3h12l2 2v16H5V3Zm3 0v6h8V3M8 21v-7h8v7" fill="none" stroke="currentColor" stroke-width="1.8" stroke-linejoin="round"/></symbol>
  <symbol id="icon-edit" viewBox="0 0 24 24"><path d="m4 20 4.5-1 10-10-3.5-3.5-10 10L4 20Zm9.5-13 3.5 3.5" fill="none" stroke="currentColor" stroke-width="1.8" stroke-linecap="round" stroke-linejoin="round"/></symbol>
  <symbol id="icon-pencil" viewBox="0 0 24 24"><path d="m4 20 4.5-1 10-10-3.5-3.5-10 10L4 20Zm9.5-13 3.5 3.5" fill="none" stroke="currentColor" stroke-width="1.8" stroke-linecap="round" stroke-linejoin="round"/></symbol>
  <symbol id="icon-delete" viewBox="0 0 24 24"><path d="M5 7h14M9 7V4h6v3M8 10v8M12 10v8M16 10v8M7 7l1 14h8l1-14" fill="none" stroke="currentColor" stroke-width="1.8" stroke-linecap="round" stroke-linejoin="round"/></symbol>
  <symbol id="icon-trash" viewBox="0 0 24 24"><path d="M5 7h14M9 7V4h6v3M8 10v8M12 10v8M16 10v8M7 7l1 14h8l1-14" fill="none" stroke="currentColor" stroke-width="1.8" stroke-linecap="round" stroke-linejoin="round"/></symbol>
  <symbol id="icon-check" viewBox="0 0 24 24"><path d="m5 12 4 4L19 6" fill="none" stroke="currentColor" stroke-width="2" stroke-linecap="round" stroke-linejoin="round"/></symbol>
  <symbol id="icon-check-circle" viewBox="0 0 24 24"><circle cx="12" cy="12" r="9" fill="none" stroke="currentColor" stroke-width="2"/><path d="m8 12 2.5 2.5L16.5 8.5" fill="none" stroke="currentColor" stroke-width="2" stroke-linecap="round" stroke-linejoin="round"/></symbol>
  <symbol id="icon-x-circle" viewBox="0 0 24 24"><circle cx="12" cy="12" r="9" fill="none" stroke="currentColor" stroke-width="2"/><path d="m9 9 6 6M15 9l-6 6" fill="none" stroke="currentColor" stroke-width="2" stroke-linecap="round"/></symbol>
  <symbol id="icon-times-circle" viewBox="0 0 24 24"><circle cx="12" cy="12" r="9" fill="none" stroke="currentColor" stroke-width="2"/><path d="m9 9 6 6M15 9l-6 6" fill="none" stroke="currentColor" stroke-width="2" stroke-linecap="round"/></symbol>
  <symbol id="icon-view" viewBox="0 0 24 24"><path d="M2.5 12s3.4-6 9.5-6 9.5 6 9.5 6-3.4 6-9.5 6-9.5-6-9.5-6Z" fill="none" stroke="currentColor" stroke-width="1.8" stroke-linecap="round" stroke-linejoin="round"/><circle cx="12" cy="12" r="2.8" fill="none" stroke="currentColor" stroke-width="1.8"/></symbol>
  <symbol id="icon-close" viewBox="0 0 24 24"><path d="M6 6l12 12M18 6 6 18" fill="none" stroke="currentColor" stroke-width="2" stroke-linecap="round"/></symbol>
  <symbol id="icon-print" viewBox="0 0 24 24"><path d="M7 9V3h10v6M7 17H4V9h16v8h-3M7 14h10v7H7v-7Z" fill="none" stroke="currentColor" stroke-width="1.8" stroke-linejoin="round"/></symbol>
  <symbol id="icon-back" viewBox="0 0 24 24"><path d="m10 6-6 6 6 6M4 12h16" fill="none" stroke="currentColor" stroke-width="2" stroke-linecap="round" stroke-linejoin="round"/></symbol>
  <symbol id="icon-qr" viewBox="0 0 24 24"><path d="M4 4h6v6H4V4Zm10 0h6v6h-6V4ZM4 14h6v6H4v-6Zm10 0h2v2h-2v-2Zm4 0h2v6h-6v-2h4v-4Zm-4 4h2v2h-2v-2Z" fill="none" stroke="currentColor" stroke-width="1.6"/></symbol>
  <symbol id="icon-search" viewBox="0 0 24 24"><circle cx="10.5" cy="10.5" r="6.5" fill="none" stroke="currentColor" stroke-width="1.9"/><path d="m15.5 15.5 5 5" fill="none" stroke="currentColor" stroke-width="1.9" stroke-linecap="round"/></symbol>
  <symbol id="icon-minus" viewBox="0 0 24 24"><path d="M5 12h14" fill="none" stroke="currentColor" stroke-width="2" stroke-linecap="round"/></symbol>
  <symbol id="icon-cart" viewBox="0 0 24 24"><path d="M3 4h2l2.2 10.2a2 2 0 0 0 2 1.6h7.7a2 2 0 0 0 2-1.6L20 8H7M10 20a1.5 1.5 0 1 0 0-3 1.5 1.5 0 0 0 0 3Zm7 0a1.5 1.5 0 1 0 0-3 1.5 1.5 0 0 0 0 3Z" fill="none" stroke="currentColor" stroke-width="1.8" stroke-linecap="round" stroke-linejoin="round"/></symbol>
</svg>