<svg xmlns="http://www.w3.org/2000/svg" viewBox="0 0 800 600" role="img" aria-labelledby="title desc"><title id="title">รูปอาหารเริ่มต้น</title><desc id="desc">ภาพจานอาหารสำหรับเมนูที่ยังไม่มีรูป</desc><defs><linearGradient id="bg" x1="0" y1="0" x2="1" y2="1"><stop offset="0" stop-color="#eef8f1"/><stop offset="1" stop-color="#dcefe3"/></linearGradient></defs><rect width="800" height="600" rx="36" fill="url(#bg)"/><circle cx="400" cy="305" r="170" fill="#fff" stroke="#159447" stroke-width="18"/><circle cx="400" cy="305" r="112" fill="#e8f3ec"/><path d="M335 285c24-58 106-58 130 0 18 42-12 95-65 95s-83-53-65-95Z" fill="#159447"/><path d="M320 430h160" stroke="#0d6f34" stroke-width="18" stroke-linecap="round"/><path d="M238 176v256M210 176v120c0 28 56 28 56 0V176M562 176v256M562 176c45 20 45 103 0 123" fill="none" stroke="#0d6f34" stroke-width="18" stroke-linecap="round" stroke-linejoin="round"/><text x="400" y="535" text-anchor="middle" font-family="Arial,sans-serif" font-size="36" font-weight="700" fill="#0d6f34">FOOD MENU</text></svg>